# xmcd
#
# Track frame offsets: 
#        150
#        11957
#        25165
#        39050
#        51150
#        63837
#        76525
#        89445
#        101180
#        118025
#        130427
#        143855
#        156712
#        170940
#        183310
#        193327
#        206520
#        221602
#        233467
#        243932
#        253897
#        265775
#        279990
#        295360
#        304725
#        317832
#        330025
#        343107
#        353317
#
# Disc length: 4877 seconds
#
# Revision: 0
# Processed by: cddbd v1.5.2PL0 Copyright (c) Steve Scherf et al.
# Submitted via: ExactAudioCopy v1.3
#
DISCID=aa130b1d
DTITLE=Merle Haggard - Hag: The Studio Recordings 1969-1976 [CD1)
DYEAR=2007
DGENRE=Country
TTITLE0=I'd Rather Be Gone
TTITLE1=Montego Bay
TTITLE2=I Die Ten Thousand Times A Day
TTITLE3=California On My Mind
TTITLE4=California Cotton Fields
TTITLE5=White Line Fever
TTITLE6=I Came So Close To Failure
TTITLE7=Workin' Man Blues
TTITLE8=The Sea Shores Of Old Mexico
TTITLE9=Okie From Muskogee
TTITLE10=If I Had Left It Up To You
TTITLE11=Streets Of Berlin
TTITLE12=Huntsville
TTITLE13=Train Of Life
TTITLE14=They're Tearing The Labor Camps Down
TTITLE15=The Fightin' Side Of Me
TTITLE16=I Wonder What She'll Think About Me Leaving
TTITLE17=No Reason To Quit
TTITLE18=Jesus, Take A Hold
TTITLE19=I Ain't Got Nobody
TTITLE20=New York City Blues
TTITLE21=One Row At A Time
TTITLE22=Shelly's Winter Love
TTITLE23=I'll Be A Hero When I Strike
TTITLE24=If You've Got Time (To Say Goodbye)
TTITLE25=I'm A Good Loser
TTITLE26=I Can't Be Myself
TTITLE27=I've Done It All
TTITLE28=One Sweet Hello
EXTD=
EXTT0=
EXTT1=
EXTT2=
EXTT3=
EXTT4=
EXTT5=
EXTT6=
EXTT7=
EXTT8=
EXTT9=
EXTT10=
EXTT11=
EXTT12=
EXTT13=
EXTT14=
EXTT15=
EXTT16=
EXTT17=
EXTT18=
EXTT19=
EXTT20=
EXTT21=
EXTT22=
EXTT23=
EXTT24=
EXTT25=
EXTT26=
EXTT27=
EXTT28=
PLAYORDER=
